<?xml version="1.0" encoding="UTF-8"?>
<svg id="Layer_1" xmlns="http://www.w3.org/2000/svg" version="1.1" viewBox="0 0 500 500">
  <path fill="#cae3dd" stroke="#265643" stroke-miterlimit="10" d="M250,0h0c138.07,0,250,111.93,250,250h0c0,138.07-111.93,250-250,250h0C111.93,500,0,388.07,0,250h0C0,111.93,111.93,0,250,0Z"/>
  <g>
    <path fill="#265643" d="M283.21,151.88c.45.56,10.86,5.17,12.92,6.42,15.72,9.49,26.28,24.13,31.06,41.81,7.2,26.61-1.29,55.8,12.96,80.66,4.51,7.87,16.21,18.23,17.33,26.39,1.69,12.34-6.96,22.58-19.17,23.7h-176.61c-12.23-1.12-20.86-11.37-19.17-23.7,1.12-8.16,12.82-18.53,17.33-26.39,13.67-23.84,6.41-51.02,11.95-76.62,4.77-22.07,16.7-37.51,36.34-48.3,1.5-.83,8.24-3.47,8.64-3.97.46-.57,1.74-5.36,2.45-6.8,13.63-27.27,47.87-27.32,61.52,0,.72,1.43,1.99,6.22,2.45,6.8h0Z"/>
    <path fill="#265643" d="M211.72,348.89l75.59-.14c6.43.7-3.23,11.67-5.33,13.79-19.88,20.08-58.68,16.45-71.12-9.64-.84-1.75-1.17-3.03.86-4h0Z"/>
  </g>
</svg>